<!DOCTYPE svg PUBLIC "-//W3C//DTD SVG 1.1//EN" "http://www.w3.org/Graphics/SVG/1.1/DTD/svg11.dtd">

<!-- Uploaded to: SVG Repo, www.svgrepo.com, Transformed by: SVG Repo Mixer Tools -->
<svg fill=" #FBFED9" width="800px" height="800px" viewBox="-51.2 -51.2 614.40 614.40" id="_x30_1" version="1.1" xml:space="preserve" xmlns="http://www.w3.org/2000/svg" xmlns:xlink="http://www.w3.org/1999/xlink" stroke=" #FDFFE4">

<g id="SVGRepo_bgCarrier" stroke-width="0">

<path transform="translate(-51.2, -51.2), scale(19.2)" d="M16,30.04515017196536C19.963728489660838,30.076599724183186,24.126184415924257,29.727665244854474,27.03610100830221,27.03610100830221C30.035328487437514,24.2619275349902,31.16843087658056,20.085479631615986,31.18455884233117,16C31.200757448002843,11.896626111715563,30.279765446627653,7.498715232197666,27.123579247440496,4.876420752559504C24.13222712897764,2.3910774768936833,19.866477073390094,2.965123240184724,16,3.3840190929671135C12.668241957913171,3.7449832471088187,9.510861217957892,4.7750341850034275,7.05108386595667,7.051083865956668C4.481888074923175,9.42837921576981,2.7021367141555905,12.515884152193731,2.3656297276417426,15.999999999999998C1.9921730928903418,19.866683996922625,2.43183049144878,24.075011563572335,5.137648662577821,26.862351337422176C7.869672800413866,29.67668661824806,12.077823242571963,30.014030305137442,16,30.04515017196536" fill=" #002A11" strokewidth="0"/>

</g>

<g id="SVGRepo_tracerCarrier" stroke-linecap="round" stroke-linejoin="round"/>

<g id="SVGRepo_iconCarrier">

<path d="M256,0C114.615,0,0,114.615,0,256s114.615,256,256,256s256-114.615,256-256S397.385,0,256,0z M256,90 c37.02,0,67.031,35.468,67.031,79.219S293.02,248.438,256,248.438s-67.031-35.468-67.031-79.219S218.98,90,256,90z M369.46,402 H142.54c-11.378,0-20.602-9.224-20.602-20.602C121.938,328.159,181.959,285,256,285s134.062,43.159,134.062,96.398 C390.062,392.776,380.839,402,369.46,402z"/>

</g>

</svg>